<svg version="1.1" xmlns="http://www.w3.org/2000/svg" viewBox="0 0 1401.3272983141892 164.034100662254"><!-- svg-source:excalidraw --><metadata></metadata><rect x="0" y="0" width="1401.3272983141892" height="164.034100662254" fill="rgba(255, 255, 255, 0)"></rect><g stroke-linecap="round" transform="translate(10 42.017051430838364) rotate(0 97.58052940060259 40)"><path d="M0 0 C46.68 0, 93.36 0, 195.16 0 M0 0 C67.98 0, 135.96 0, 195.16 0 M195.16 0 C195.16 25.68, 195.16 51.35, 195.16 80 M195.16 0 C195.16 25.77, 195.16 51.54, 195.16 80 M195.16 80 C138.8 80, 82.44 80, 0 80 M195.16 80 C140.12 80, 85.08 80, 0 80 M0 80 C0 54.64, 0 29.27, 0 0 M0 80 C0 61.24, 0 42.48, 0 0" stroke="#1e1e1e" stroke-width="4" fill="none"></path></g><g transform="translate(16.552575299040086 47.017051430838364) rotate(0 91.0279541015625 35)"><text x="91.0279541015625" y="24.668" font-family="Arial, Helvetica, sans-serif" font-size="28px" fill="#1e1e1e" text-anchor="middle" style="white-space: pre;" direction="ltr" dominant-baseline="alphabetic">Input</text><text x="91.0279541015625" y="59.668" font-family="Arial, Helvetica, sans-serif" font-size="28px" fill="#1e1e1e" text-anchor="middle" style="white-space: pre;" direction="ltr" dominant-baseline="alphabetic">12 x 32 x 24</text></g><g stroke-linecap="round" transform="translate(281.40350084694705 58.65228118861569) rotate(0 97.58052940060259 23.364769714636623)"><path d="M0 0 C52.43 0, 104.86 0, 195.16 0 M0 0 C66.38 0, 132.76 0, 195.16 0 M195.16 0 C195.16 18.1, 195.16 36.19, 195.16 46.73 M195.16 0 C195.16 11.52, 195.16 23.05, 195.16 46.73 M195.16 46.73 C120.37 46.73, 45.57 46.73, 0 46.73 M195.16 46.73 C131.51 46.73, 67.87 46.73, 0 46.73 M0 46.73 C0 29.38, 0 12.03, 0 0 M0 46.73 C0 32.66, 0 18.58, 0 0" stroke="#1e1e1e" stroke-width="4" fill="none"></path></g><g transform="translate(348.45004892430745 64.51705090325231) rotate(0 30.533981323242188 17.5)"><text x="30.533981323242188" y="24.668" font-family="Arial, Helvetica, sans-serif" font-size="28px" fill="#1e1e1e" text-anchor="middle" style="white-space: pre;" direction="ltr" dominant-baseline="alphabetic">Split</text></g><g stroke-linecap="round"><g transform="translate(212.16105880120517 82.02474591838529) rotate(0 31.12122102287094 -0.0013582743684423804)"><path d="M0 0 C10.37 0, 51.87 0, 62.24 0 M0 0 C10.37 0, 51.87 0, 62.24 0" stroke="#1e1e1e" stroke-width="4" fill="none"></path></g><g transform="translate(212.16105880120517 82.02474591838529) rotate(0 31.12122102287094 -0.0013582743684423804)"><path d="M38.75 8.55 C44.47 6.47, 50.19 4.39, 62.24 0 M38.75 8.55 C46.9 5.58, 55.05 2.61, 62.24 0" stroke="#1e1e1e" stroke-width="4" fill="none"></path></g><g transform="translate(212.16105880120517 82.02474591838529) rotate(0 31.12122102287094 -0.0013582743684423804)"><path d="M38.75 -8.55 C44.47 -6.47, 50.19 -4.39, 62.24 0 M38.75 -8.55 C46.9 -5.59, 55.05 -2.62, 62.24 0" stroke="#1e1e1e" stroke-width="4" fill="none"></path></g></g><mask></mask><g stroke-linecap="round" transform="translate(530.1163832494158 17.24323008047054) rotate(0 138.37859685380045 24.781331007196513)"><path d="M0 0 C100.97 0, 201.93 0, 276.76 0 M0 0 C108.67 0, 217.33 0, 276.76 0 M276.76 0 C276.76 15.13, 276.76 30.27, 276.76 49.56 M276.76 0 C276.76 12.92, 276.76 25.85, 276.76 49.56 M276.76 49.56 C206.11 49.56, 135.46 49.56, 0 49.56 M276.76 49.56 C170.45 49.56, 64.14 49.56, 0 49.56 M0 49.56 C0 35.88, 0 22.2, 0 0 M0 49.56 C0 30.32, 0 11.08, 0 0" stroke="#1e1e1e" stroke-width="4" fill="none"></path></g><g transform="translate(567.1630327765561 24.524561087667053) rotate(0 101.33194732666016 17.5)"><text x="101.33194732666016" y="24.668" font-family="Arial, Helvetica, sans-serif" font-size="28px" fill="#1e1e1e" text-anchor="middle" style="white-space: pre;" direction="ltr" dominant-baseline="alphabetic">Rama Temporal</text></g><g stroke-linecap="round" transform="translate(530.1163838535854 97.23572036729502) rotate(0 138.37859685380045 24.781331007196513)"><path d="M0 0 C106.42 0, 212.85 0, 276.76 0 M0 0 C89.66 0, 179.33 0, 276.76 0 M276.76 0 C276.76 17.29, 276.76 34.59, 276.76 49.56 M276.76 0 C276.76 17.7, 276.76 35.4, 276.76 49.56 M276.76 49.56 C176.93 49.56, 77.1 49.56, 0 49.56 M276.76 49.56 C195.7 49.56, 114.65 49.56, 0 49.56 M0 49.56 C0 38.34, 0 27.12, 0 0 M0 49.56 C0 30.39, 0 11.21, 0 0" stroke="#1e1e1e" stroke-width="4" fill="none"></path></g><g transform="translate(563.4250267889288 104.51705137449153) rotate(0 105.06995391845703 17.5)"><text x="105.06995391845703" y="24.668" font-family="Arial, Helvetica, sans-serif" font-size="28px" fill="#1e1e1e" text-anchor="middle" style="white-space: pre;" direction="ltr" dominant-baseline="alphabetic">Rama Espectral</text></g><g stroke-linecap="round"><g transform="translate(483.5645596481523 76.79416246530491) rotate(0 19.775911800631746 -14.768541859773109)"><path d="M0 0 C6.59 -4.92, 32.96 -24.61, 39.55 -29.54 M0 0 C6.59 -4.92, 32.96 -24.61, 39.55 -29.54" stroke="#1e1e1e" stroke-width="4" fill="none"></path></g><g transform="translate(483.5645596481523 76.79416246530491) rotate(0 19.775911800631746 -14.768541859773109)"><path d="M26.02 -8.9 C28.81 -13.15, 31.59 -17.4, 39.55 -29.54 M26.02 -8.9 C31.36 -17.04, 36.7 -25.19, 39.55 -29.54" stroke="#1e1e1e" stroke-width="4" fill="none"></path></g><g transform="translate(483.5645596481523 76.79416246530491) rotate(0 19.775911800631746 -14.768541859773109)"><path d="M15.92 -22.42 C20.78 -23.89, 25.65 -25.35, 39.55 -29.54 M15.92 -22.42 C25.25 -25.23, 34.58 -28.04, 39.55 -29.54" stroke="#1e1e1e" stroke-width="4" fill="none"></path></g></g><mask></mask><g stroke-linecap="round"><g transform="translate(483.5645596481522 87.25034100775872) rotate(0 19.77591210271663 14.771524741185544)"><path d="M0 0 C6.59 4.92, 32.96 24.62, 39.55 29.54 M0 0 C6.59 4.92, 32.96 24.62, 39.55 29.54" stroke="#1e1e1e" stroke-width="4" fill="none"></path></g><g transform="translate(483.5645596481522 87.25034100775872) rotate(0 19.77591210271663 14.771524741185544)"><path d="M15.92 22.43 C21.71 24.17, 27.5 25.91, 39.55 29.54 M15.92 22.43 C20.94 23.94, 25.95 25.45, 39.55 29.54" stroke="#1e1e1e" stroke-width="4" fill="none"></path></g><g transform="translate(483.5645596481522 87.25034100775872) rotate(0 19.77591210271663 14.771524741185544)"><path d="M26.02 8.9 C29.34 13.96, 32.65 19.02, 39.55 29.54 M26.02 8.9 C28.89 13.28, 31.77 17.67, 39.55 29.54" stroke="#1e1e1e" stroke-width="4" fill="none"></path></g></g><mask></mask><g stroke-linecap="round" transform="translate(860.425402566984 58.65228075404343) rotate(0 97.58052940060257 23.364769714636623)"><path d="M0 0 C56.57 0, 113.15 0, 195.16 0 M0 0 C76.74 0, 153.48 0, 195.16 0 M195.16 0 C195.16 16.86, 195.16 33.72, 195.16 46.73 M195.16 0 C195.16 10.99, 195.16 21.98, 195.16 46.73 M195.16 46.73 C139.74 46.73, 84.32 46.73, 0 46.73 M195.16 46.73 C119.71 46.73, 44.26 46.73, 0 46.73 M0 46.73 C0 35.82, 0 24.91, 0 0 M0 46.73 C0 35.8, 0 24.86, 0 0" stroke="#1e1e1e" stroke-width="4" fill="none"></path></g><g transform="translate(872.3679619968834 64.51705046868005) rotate(0 85.63796997070312 17.5)"><text x="85.63796997070312" y="24.668" font-family="Arial, Helvetica, sans-serif" font-size="28px" fill="#1e1e1e" text-anchor="middle" style="white-space: pre;" direction="ltr" dominant-baseline="alphabetic">Concatenate</text></g><g stroke-linecap="round"><g transform="translate(813.8735769570167 47.257078492870505) rotate(0 19.77591280498369 14.768541895375165)"><path d="M0 0 C6.59 4.92, 32.96 24.61, 39.55 29.54 M0 0 C6.59 4.92, 32.96 24.61, 39.55 29.54" stroke="#1e1e1e" stroke-width="4" fill="none"></path></g><g transform="translate(813.8735769570167 47.257078492870505) rotate(0 19.77591280498369 14.768541895375165)"><path d="M15.92 22.42 C21.01 23.96, 26.1 25.49, 39.55 29.54 M15.92 22.42 C23.92 24.83, 31.93 27.24, 39.55 29.54" stroke="#1e1e1e" stroke-width="4" fill="none"></path></g><g transform="translate(813.8735769570167 47.257078492870505) rotate(0 19.77591280498369 14.768541895375165)"><path d="M26.02 8.9 C28.94 13.34, 31.85 17.79, 39.55 29.54 M26.02 8.9 C30.6 15.89, 35.19 22.88, 39.55 29.54" stroke="#1e1e1e" stroke-width="4" fill="none"></path></g></g><mask></mask><g stroke-linecap="round"><g transform="translate(813.8735775611863 116.79339051146962) rotate(0 19.77591250289884 -14.771524979811602)"><path d="M0 0 C6.59 -4.92, 32.96 -24.62, 39.55 -29.54 M0 0 C6.59 -4.92, 32.96 -24.62, 39.55 -29.54" stroke="#1e1e1e" stroke-width="4" fill="none"></path></g><g transform="translate(813.8735775611863 116.79339051146962) rotate(0 19.77591250289884 -14.771524979811602)"><path d="M26.02 -8.9 C30.97 -16.44, 35.91 -23.99, 39.55 -29.54 M26.02 -8.9 C31.23 -16.85, 36.45 -24.8, 39.55 -29.54" stroke="#1e1e1e" stroke-width="4" fill="none"></path></g><g transform="translate(813.8735775611863 116.79339051146962) rotate(0 19.77591250289884 -14.771524979811602)"><path d="M15.92 -22.43 C24.55 -25.03, 33.19 -27.63, 39.55 -29.54 M15.92 -22.43 C25.02 -25.17, 34.13 -27.91, 39.55 -29.54" stroke="#1e1e1e" stroke-width="4" fill="none"></path></g></g><mask></mask><g stroke-linecap="round" transform="translate(1109.1382859284513 58.65228017354957) rotate(0 45.37698029708676 23.364769714636623)"><path d="M0 0 C26.51 0, 53.01 0, 90.75 0 M0 0 C28.48 0, 56.95 0, 90.75 0 M90.75 0 C90.75 10.6, 90.75 21.2, 90.75 46.73 M90.75 0 C90.75 10.29, 90.75 20.58, 90.75 46.73 M90.75 46.73 C56.02 46.73, 21.29 46.73, 0 46.73 M90.75 46.73 C56.41 46.73, 22.06 46.73, 0 46.73 M0 46.73 C0 32.48, 0 18.22, 0 0 M0 46.73 C0 28.66, 0 10.59, 0 0" stroke="#1e1e1e" stroke-width="4" fill="none"></path></g><g transform="translate(1136.4552686669444 64.5170498881862) rotate(0 18.05999755859375 17.5)"><text x="18.05999755859375" y="24.668" font-family="Arial, Helvetica, sans-serif" font-size="28px" fill="#1e1e1e" text-anchor="middle" style="white-space: pre;" direction="ltr" dominant-baseline="alphabetic">FC</text></g><g stroke-linecap="round"><g transform="translate(1062.586461368189 82.02172334674412) rotate(0 19.775912280131124 -2.1436795805129805e-7)"><path d="M0 0 C6.59 0, 32.96 0, 39.55 0 M0 0 C6.59 0, 32.96 0, 39.55 0" stroke="#1e1e1e" stroke-width="4" fill="none"></path></g><g transform="translate(1062.586461368189 82.02172334674412) rotate(0 19.775912280131124 -2.1436795805129805e-7)"><path d="M20.97 6.76 C28.01 4.2, 35.04 1.64, 39.55 0 M20.97 6.76 C25 5.3, 29.04 3.83, 39.55 0" stroke="#1e1e1e" stroke-width="4" fill="none"></path></g><g transform="translate(1062.586461368189 82.02172334674412) rotate(0 19.775912280131124 -2.1436795805129805e-7)"><path d="M20.97 -6.76 C28.01 -4.2, 35.04 -1.64, 39.55 0 M20.97 -6.76 C25 -5.3, 29.04 -3.83, 39.55 0" stroke="#1e1e1e" stroke-width="4" fill="none"></path></g></g><mask></mask><g stroke-linecap="round"><g transform="translate(1206.8922465226249 76.2326493192304) rotate(0 26.317294831742316 -21.764679243537557)"><path d="M0 0 C8.77 -7.25, 43.86 -36.27, 52.63 -43.53 M0 0 C8.77 -7.25, 43.86 -36.27, 52.63 -43.53" stroke="#e03131" stroke-width="4" fill="none"></path></g><g transform="translate(1206.8922465226249 76.2326493192304) rotate(0 26.317294831742316 -21.764679243537557)"><path d="M39.98 -21.97 C44.06 -28.93, 48.15 -35.88, 52.63 -43.53 M39.98 -21.97 C43.32 -27.66, 46.66 -33.35, 52.63 -43.53" stroke="#e03131" stroke-width="4" fill="none"></path></g><g transform="translate(1206.8922465226249 76.2326493192304) rotate(0 26.317294831742316 -21.764679243537557)"><path d="M29.08 -35.15 C36.68 -37.85, 44.28 -40.56, 52.63 -43.53 M29.08 -35.15 C35.3 -37.36, 41.52 -39.57, 52.63 -43.53" stroke="#e03131" stroke-width="4" fill="none"></path></g></g><mask></mask><g stroke-linecap="round" transform="translate(1265.8155265605888 15.113089958540058) rotate(0 12.386910499999999 12.386910499999999)"><path d="M24.77 12.39 C24.77 13.1, 24.71 13.83, 24.59 14.54 C24.46 15.24, 24.27 15.95, 24.03 16.62 C23.78 17.3, 23.47 17.96, 23.11 18.58 C22.76 19.2, 22.34 19.8, 21.88 20.35 C21.41 20.9, 20.9 21.41, 20.35 21.88 C19.8 22.34, 19.2 22.76, 18.58 23.11 C17.96 23.47, 17.3 23.78, 16.62 24.03 C15.95 24.27, 15.24 24.46, 14.54 24.59 C13.83 24.71, 13.1 24.77, 12.39 24.77 C11.67 24.77, 10.94 24.71, 10.24 24.59 C9.53 24.46, 8.82 24.27, 8.15 24.03 C7.48 23.78, 6.81 23.47, 6.19 23.11 C5.57 22.76, 4.97 22.34, 4.42 21.88 C3.88 21.41, 3.36 20.9, 2.9 20.35 C2.44 19.8, 2.02 19.2, 1.66 18.58 C1.3 17.96, 0.99 17.3, 0.75 16.62 C0.5 15.95, 0.31 15.24, 0.19 14.54 C0.06 13.83, 0 13.1, 0 12.39 C0 11.67, 0.06 10.94, 0.19 10.24 C0.31 9.53, 0.5 8.82, 0.75 8.15 C0.99 7.48, 1.3 6.81, 1.66 6.19 C2.02 5.57, 2.44 4.97, 2.9 4.42 C3.36 3.88, 3.88 3.36, 4.42 2.9 C4.97 2.44, 5.57 2.02, 6.19 1.66 C6.81 1.3, 7.48 0.99, 8.15 0.75 C8.82 0.5, 9.53 0.31, 10.24 0.19 C10.94 0.06, 11.67 0, 12.39 0 C13.1 0, 13.83 0.06, 14.54 0.19 C15.24 0.31, 15.95 0.5, 16.62 0.75 C17.3 0.99, 17.96 1.3, 18.58 1.66 C19.2 2.02, 19.8 2.44, 20.35 2.9 C20.9 3.36, 21.41 3.88, 21.88 4.42 C22.34 4.97, 22.76 5.57, 23.11 6.19 C23.47 6.81, 23.78 7.48, 24.03 8.15 C24.27 8.82, 24.46 9.53, 24.59 10.24 C24.71 10.94, 24.74 12.03, 24.77 12.39 C24.81 12.75, 24.81 12.03, 24.77 12.39" stroke="none" stroke-width="0" fill="#ffc9c9"></path><path d="M24.77 12.39 C24.77 13.1, 24.71 13.83, 24.59 14.54 C24.46 15.24, 24.27 15.95, 24.03 16.62 C23.78 17.3, 23.47 17.96, 23.11 18.58 C22.76 19.2, 22.34 19.8, 21.88 20.35 C21.41 20.9, 20.9 21.41, 20.35 21.88 C19.8 22.34, 19.2 22.76, 18.58 23.11 C17.96 23.47, 17.3 23.78, 16.62 24.03 C15.95 24.27, 15.24 24.46, 14.54 24.59 C13.83 24.71, 13.1 24.77, 12.39 24.77 C11.67 24.77, 10.94 24.71, 10.24 24.59 C9.53 24.46, 8.82 24.27, 8.15 24.03 C7.48 23.78, 6.81 23.47, 6.19 23.11 C5.57 22.76, 4.97 22.34, 4.42 21.88 C3.88 21.41, 3.36 20.9, 2.9 20.35 C2.44 19.8, 2.02 19.2, 1.66 18.58 C1.3 17.96, 0.99 17.3, 0.75 16.62 C0.5 15.95, 0.31 15.24, 0.19 14.54 C0.06 13.83, 0 13.1, 0 12.39 C0 11.67, 0.06 10.94, 0.19 10.24 C0.31 9.53, 0.5 8.82, 0.75 8.15 C0.99 7.48, 1.3 6.81, 1.66 6.19 C2.02 5.57, 2.44 4.97, 2.9 4.42 C3.36 3.88, 3.88 3.36, 4.42 2.9 C4.97 2.44, 5.57 2.02, 6.19 1.66 C6.81 1.3, 7.48 0.99, 8.15 0.75 C8.82 0.5, 9.53 0.31, 10.24 0.19 C10.94 0.06, 11.67 0, 12.39 0 C13.1 0, 13.83 0.06, 14.54 0.19 C15.24 0.31, 15.95 0.5, 16.62 0.75 C17.3 0.99, 17.96 1.3, 18.58 1.66 C19.2 2.02, 19.8 2.44, 20.35 2.9 C20.9 3.36, 21.41 3.88, 21.88 4.42 C22.34 4.97, 22.76 5.57, 23.11 6.19 C23.47 6.81, 23.78 7.48, 24.03 8.15 C24.27 8.82, 24.46 9.53, 24.59 10.24 C24.71 10.94, 24.74 12.03, 24.77 12.39 C24.81 12.75, 24.81 12.03, 24.77 12.39" stroke="#1e1e1e" stroke-width="4" fill="none"></path></g><g stroke-linecap="round" transform="translate(1265.8155273394273 51.45778985512243) rotate(0 12.386910499999999 12.386910499999999)"><path d="M24.77 12.39 C24.77 13.1, 24.71 13.83, 24.59 14.54 C24.46 15.24, 24.27 15.95, 24.03 16.62 C23.78 17.3, 23.47 17.96, 23.11 18.58 C22.76 19.2, 22.34 19.8, 21.88 20.35 C21.41 20.9, 20.9 21.41, 20.35 21.88 C19.8 22.34, 19.2 22.76, 18.58 23.11 C17.96 23.47, 17.3 23.78, 16.62 24.03 C15.95 24.27, 15.24 24.46, 14.54 24.59 C13.83 24.71, 13.1 24.77, 12.39 24.77 C11.67 24.77, 10.94 24.71, 10.24 24.59 C9.53 24.46, 8.82 24.27, 8.15 24.03 C7.48 23.78, 6.81 23.47, 6.19 23.11 C5.57 22.76, 4.97 22.34, 4.42 21.88 C3.88 21.41, 3.36 20.9, 2.9 20.35 C2.44 19.8, 2.02 19.2, 1.66 18.58 C1.3 17.96, 0.99 17.3, 0.75 16.62 C0.5 15.95, 0.31 15.24, 0.19 14.54 C0.06 13.83, 0 13.1, 0 12.39 C0 11.67, 0.06 10.94, 0.19 10.24 C0.31 9.53, 0.5 8.82, 0.75 8.15 C0.99 7.48, 1.3 6.81, 1.66 6.19 C2.02 5.57, 2.44 4.97, 2.9 4.42 C3.36 3.88, 3.88 3.36, 4.42 2.9 C4.97 2.44, 5.57 2.02, 6.19 1.66 C6.81 1.3, 7.48 0.99, 8.15 0.75 C8.82 0.5, 9.53 0.31, 10.24 0.19 C10.94 0.06, 11.67 0, 12.39 0 C13.1 0, 13.83 0.06, 14.54 0.19 C15.24 0.31, 15.95 0.5, 16.62 0.75 C17.3 0.99, 17.96 1.3, 18.58 1.66 C19.2 2.02, 19.8 2.44, 20.35 2.9 C20.9 3.36, 21.41 3.88, 21.88 4.42 C22.34 4.97, 22.76 5.57, 23.11 6.19 C23.47 6.81, 23.78 7.48, 24.03 8.15 C24.27 8.82, 24.46 9.53, 24.59 10.24 C24.71 10.94, 24.74 12.03, 24.77 12.39 C24.81 12.75, 24.81 12.03, 24.77 12.39" stroke="none" stroke-width="0" fill="#b2f2bb"></path><path d="M24.77 12.39 C24.77 13.1, 24.71 13.83, 24.59 14.54 C24.46 15.24, 24.27 15.95, 24.03 16.62 C23.78 17.3, 23.47 17.96, 23.11 18.58 C22.76 19.2, 22.34 19.8, 21.88 20.35 C21.41 20.9, 20.9 21.41, 20.35 21.88 C19.8 22.34, 19.2 22.76, 18.58 23.11 C17.96 23.47, 17.3 23.78, 16.62 24.03 C15.95 24.27, 15.24 24.46, 14.54 24.59 C13.83 24.71, 13.1 24.77, 12.39 24.77 C11.67 24.77, 10.94 24.71, 10.24 24.59 C9.53 24.46, 8.82 24.27, 8.15 24.03 C7.48 23.78, 6.81 23.47, 6.19 23.11 C5.57 22.76, 4.97 22.34, 4.42 21.88 C3.88 21.41, 3.36 20.9, 2.9 20.35 C2.44 19.8, 2.02 19.2, 1.66 18.58 C1.3 17.96, 0.99 17.3, 0.75 16.62 C0.5 15.95, 0.31 15.24, 0.19 14.54 C0.06 13.83, 0 13.1, 0 12.39 C0 11.67, 0.06 10.94, 0.19 10.24 C0.31 9.53, 0.5 8.82, 0.75 8.15 C0.99 7.48, 1.3 6.81, 1.66 6.19 C2.02 5.57, 2.44 4.97, 2.9 4.42 C3.36 3.88, 3.88 3.36, 4.42 2.9 C4.97 2.44, 5.57 2.02, 6.19 1.66 C6.81 1.3, 7.48 0.99, 8.15 0.75 C8.82 0.5, 9.53 0.31, 10.24 0.19 C10.94 0.06, 11.67 0, 12.39 0 C13.1 0, 13.83 0.06, 14.54 0.19 C15.24 0.31, 15.95 0.5, 16.62 0.75 C17.3 0.99, 17.96 1.3, 18.58 1.66 C19.2 2.02, 19.8 2.44, 20.35 2.9 C20.9 3.36, 21.41 3.88, 21.88 4.42 C22.34 4.97, 22.76 5.57, 23.11 6.19 C23.47 6.81, 23.78 7.48, 24.03 8.15 C24.27 8.82, 24.46 9.53, 24.59 10.24 C24.71 10.94, 24.74 12.03, 24.77 12.39 C24.81 12.75, 24.81 12.03, 24.77 12.39" stroke="#1e1e1e" stroke-width="4" fill="none"></path></g><g stroke-linecap="round" transform="translate(1265.8155270453058 87.80248971188871) rotate(0 12.386910499999999 12.386910499999999)"><path d="M24.77 12.39 C24.77 13.1, 24.71 13.83, 24.59 14.54 C24.46 15.24, 24.27 15.95, 24.03 16.62 C23.78 17.3, 23.47 17.96, 23.11 18.58 C22.76 19.2, 22.34 19.8, 21.88 20.35 C21.41 20.9, 20.9 21.41, 20.35 21.88 C19.8 22.34, 19.2 22.76, 18.58 23.11 C17.96 23.47, 17.3 23.78, 16.62 24.03 C15.95 24.27, 15.24 24.46, 14.54 24.59 C13.83 24.71, 13.1 24.77, 12.39 24.77 C11.67 24.77, 10.94 24.71, 10.24 24.59 C9.53 24.46, 8.82 24.27, 8.15 24.03 C7.48 23.78, 6.81 23.47, 6.19 23.11 C5.57 22.76, 4.97 22.34, 4.42 21.88 C3.88 21.41, 3.36 20.9, 2.9 20.35 C2.44 19.8, 2.02 19.2, 1.66 18.58 C1.3 17.96, 0.99 17.3, 0.75 16.62 C0.5 15.95, 0.31 15.24, 0.19 14.54 C0.06 13.83, 0 13.1, 0 12.39 C0 11.67, 0.06 10.94, 0.19 10.24 C0.31 9.53, 0.5 8.82, 0.75 8.15 C0.99 7.48, 1.3 6.81, 1.66 6.19 C2.02 5.57, 2.44 4.97, 2.9 4.42 C3.36 3.88, 3.88 3.36, 4.42 2.9 C4.97 2.44, 5.57 2.02, 6.19 1.66 C6.81 1.3, 7.48 0.99, 8.15 0.75 C8.82 0.5, 9.53 0.31, 10.24 0.19 C10.94 0.06, 11.67 0, 12.39 0 C13.1 0, 13.83 0.06, 14.54 0.19 C15.24 0.31, 15.95 0.5, 16.62 0.75 C17.3 0.99, 17.96 1.3, 18.58 1.66 C19.2 2.02, 19.8 2.44, 20.35 2.9 C20.9 3.36, 21.41 3.88, 21.88 4.42 C22.34 4.97, 22.76 5.57, 23.11 6.19 C23.47 6.81, 23.78 7.48, 24.03 8.15 C24.27 8.82, 24.46 9.53, 24.59 10.24 C24.71 10.94, 24.74 12.03, 24.77 12.39 C24.81 12.75, 24.81 12.03, 24.77 12.39" stroke="none" stroke-width="0" fill="#a5d8ff"></path><path d="M24.77 12.39 C24.77 13.1, 24.71 13.83, 24.59 14.54 C24.46 15.24, 24.27 15.95, 24.03 16.62 C23.78 17.3, 23.47 17.96, 23.11 18.58 C22.76 19.2, 22.34 19.8, 21.88 20.35 C21.41 20.9, 20.9 21.41, 20.35 21.88 C19.8 22.34, 19.2 22.76, 18.58 23.11 C17.96 23.47, 17.3 23.78, 16.62 24.03 C15.95 24.27, 15.24 24.46, 14.54 24.59 C13.83 24.71, 13.1 24.77, 12.39 24.77 C11.67 24.77, 10.94 24.71, 10.24 24.59 C9.53 24.46, 8.82 24.27, 8.15 24.03 C7.48 23.78, 6.81 23.47, 6.19 23.11 C5.57 22.76, 4.97 22.34, 4.42 21.88 C3.88 21.41, 3.36 20.9, 2.9 20.35 C2.44 19.8, 2.02 19.2, 1.66 18.58 C1.3 17.96, 0.99 17.3, 0.75 16.62 C0.5 15.95, 0.31 15.24, 0.19 14.54 C0.06 13.83, 0 13.1, 0 12.39 C0 11.67, 0.06 10.94, 0.19 10.24 C0.31 9.53, 0.5 8.82, 0.75 8.15 C0.99 7.48, 1.3 6.81, 1.66 6.19 C2.02 5.57, 2.44 4.97, 2.9 4.42 C3.36 3.88, 3.88 3.36, 4.42 2.9 C4.97 2.44, 5.57 2.02, 6.19 1.66 C6.81 1.3, 7.48 0.99, 8.15 0.75 C8.82 0.5, 9.53 0.31, 10.24 0.19 C10.94 0.06, 11.67 0, 12.39 0 C13.1 0, 13.83 0.06, 14.54 0.19 C15.24 0.31, 15.95 0.5, 16.62 0.75 C17.3 0.99, 17.96 1.3, 18.58 1.66 C19.2 2.02, 19.8 2.44, 20.35 2.9 C20.9 3.36, 21.41 3.88, 21.88 4.42 C22.34 4.97, 22.76 5.57, 23.11 6.19 C23.47 6.81, 23.78 7.48, 24.03 8.15 C24.27 8.82, 24.46 9.53, 24.59 10.24 C24.71 10.94, 24.74 12.03, 24.77 12.39 C24.81 12.75, 24.81 12.03, 24.77 12.39" stroke="#1e1e1e" stroke-width="4" fill="none"></path></g><g stroke-linecap="round" transform="translate(1265.815527381336 124.14719011873387) rotate(0 12.386910499999999 12.386910499999999)"><path d="M24.77 12.39 C24.77 13.1, 24.71 13.83, 24.59 14.54 C24.46 15.24, 24.27 15.95, 24.03 16.62 C23.78 17.3, 23.47 17.96, 23.11 18.58 C22.76 19.2, 22.34 19.8, 21.88 20.35 C21.41 20.9, 20.9 21.41, 20.35 21.88 C19.8 22.34, 19.2 22.76, 18.58 23.11 C17.96 23.47, 17.3 23.78, 16.62 24.03 C15.95 24.27, 15.24 24.46, 14.54 24.59 C13.83 24.71, 13.1 24.77, 12.39 24.77 C11.67 24.77, 10.94 24.71, 10.24 24.59 C9.53 24.46, 8.82 24.27, 8.15 24.03 C7.48 23.78, 6.81 23.47, 6.19 23.11 C5.57 22.76, 4.97 22.34, 4.42 21.88 C3.88 21.41, 3.36 20.9, 2.9 20.35 C2.44 19.8, 2.02 19.2, 1.66 18.58 C1.3 17.96, 0.99 17.3, 0.75 16.62 C0.5 15.95, 0.31 15.24, 0.19 14.54 C0.06 13.83, 0 13.1, 0 12.39 C0 11.67, 0.06 10.94, 0.19 10.24 C0.31 9.53, 0.5 8.82, 0.75 8.15 C0.99 7.48, 1.3 6.81, 1.66 6.19 C2.02 5.57, 2.44 4.97, 2.9 4.42 C3.36 3.88, 3.88 3.36, 4.42 2.9 C4.97 2.44, 5.57 2.02, 6.19 1.66 C6.81 1.3, 7.48 0.99, 8.15 0.75 C8.82 0.5, 9.53 0.31, 10.24 0.19 C10.94 0.06, 11.67 0, 12.39 0 C13.1 0, 13.83 0.06, 14.54 0.19 C15.24 0.31, 15.95 0.5, 16.62 0.75 C17.3 0.99, 17.96 1.3, 18.58 1.66 C19.2 2.02, 19.8 2.44, 20.35 2.9 C20.9 3.36, 21.41 3.88, 21.88 4.42 C22.34 4.97, 22.76 5.57, 23.11 6.19 C23.47 6.81, 23.78 7.48, 24.03 8.15 C24.27 8.82, 24.46 9.53, 24.59 10.24 C24.71 10.94, 24.74 12.03, 24.77 12.39 C24.81 12.75, 24.81 12.03, 24.77 12.39" stroke="none" stroke-width="0" fill="#ffec99"></path><path d="M24.77 12.39 C24.77 13.1, 24.71 13.83, 24.59 14.54 C24.46 15.24, 24.27 15.95, 24.03 16.62 C23.78 17.3, 23.47 17.96, 23.11 18.58 C22.76 19.2, 22.34 19.8, 21.88 20.35 C21.41 20.9, 20.9 21.41, 20.35 21.88 C19.8 22.34, 19.2 22.76, 18.58 23.11 C17.96 23.47, 17.3 23.78, 16.62 24.03 C15.95 24.27, 15.24 24.46, 14.54 24.59 C13.83 24.71, 13.1 24.77, 12.39 24.77 C11.67 24.77, 10.94 24.71, 10.24 24.59 C9.53 24.46, 8.82 24.27, 8.15 24.03 C7.48 23.78, 6.81 23.47, 6.19 23.11 C5.57 22.76, 4.97 22.34, 4.42 21.88 C3.88 21.41, 3.36 20.9, 2.9 20.35 C2.44 19.8, 2.02 19.2, 1.66 18.58 C1.3 17.96, 0.99 17.3, 0.75 16.62 C0.5 15.95, 0.31 15.24, 0.19 14.54 C0.06 13.83, 0 13.1, 0 12.39 C0 11.67, 0.06 10.94, 0.19 10.24 C0.31 9.53, 0.5 8.82, 0.75 8.15 C0.99 7.48, 1.3 6.81, 1.66 6.19 C2.02 5.57, 2.44 4.97, 2.9 4.42 C3.36 3.88, 3.88 3.36, 4.42 2.9 C4.97 2.44, 5.57 2.02, 6.19 1.66 C6.81 1.3, 7.48 0.99, 8.15 0.75 C8.82 0.5, 9.53 0.31, 10.24 0.19 C10.94 0.06, 11.67 0, 12.39 0 C13.1 0, 13.83 0.06, 14.54 0.19 C15.24 0.31, 15.95 0.5, 16.62 0.75 C17.3 0.99, 17.96 1.3, 18.58 1.66 C19.2 2.02, 19.8 2.44, 20.35 2.9 C20.9 3.36, 21.41 3.88, 21.88 4.42 C22.34 4.97, 22.76 5.57, 23.11 6.19 C23.47 6.81, 23.78 7.48, 24.03 8.15 C24.27 8.82, 24.46 9.53, 24.59 10.24 C24.71 10.94, 24.74 12.03, 24.77 12.39 C24.81 12.75, 24.81 12.03, 24.77 12.39" stroke="#1e1e1e" stroke-width="4" fill="none"></path></g><g transform="translate(1312.3673524547353 10) rotate(0 27.103988647460938 17.5)"><text x="27.103988647460938" y="24.668" font-family="Arial, Helvetica, sans-serif" font-size="28px" fill="#1e1e1e" text-anchor="middle" style="white-space: pre;" direction="ltr" dominant-baseline="alphabetic">Skip</text></g><g transform="translate(1312.3673526354783 46.34470012170391) rotate(0 39.47997283935547 17.5)"><text x="39.47997283935547" y="24.668" font-family="Arial, Helvetica, sans-serif" font-size="28px" fill="#1e1e1e" text-anchor="middle" style="white-space: pre;" direction="ltr" dominant-baseline="alphabetic">Twist</text></g><g transform="translate(1312.367351952974 82.6893999063766) rotate(0 32.43798828125 17.5)"><text x="32.43798828125" y="24.668" font-family="Arial, Helvetica, sans-serif" font-size="28px" fill="#1e1e1e" text-anchor="middle" style="white-space: pre;" direction="ltr" dominant-baseline="alphabetic">Jump</text></g><g transform="translate(1312.3673525101306 119.03410066225399) rotate(0 31.485992431640625 17.5)"><text x="31.485992431640625" y="24.668" font-family="Arial, Helvetica, sans-serif" font-size="28px" fill="#1e1e1e" text-anchor="middle" style="white-space: pre;" direction="ltr" dominant-baseline="alphabetic">Step</text></g><g stroke-linecap="round"><g transform="translate(1206.8922465226249 80.09187629690189) rotate(0 26.00862137961346 -7.170378302224037)"><path d="M0 0 C8.67 -2.39, 43.35 -11.95, 52.02 -14.34 M0 0 C8.67 -2.39, 43.35 -11.95, 52.02 -14.34" stroke="#2f9e44" stroke-width="4" fill="none"></path></g><g transform="translate(1206.8922465226249 80.09187629690189) rotate(0 26.00862137961346 -7.170378302224037)"><path d="M31.64 0.15 C35.87 -2.86, 40.09 -5.86, 52.02 -14.34 M31.64 0.15 C36.4 -3.24, 41.17 -6.63, 52.02 -14.34" stroke="#2f9e44" stroke-width="4" fill="none"></path></g><g transform="translate(1206.8922465226249 80.09187629690189) rotate(0 26.00862137961346 -7.170378302224037)"><path d="M27.1 -16.34 C32.26 -15.93, 37.43 -15.51, 52.02 -14.34 M27.1 -16.34 C32.92 -15.87, 38.75 -15.41, 52.02 -14.34" stroke="#2f9e44" stroke-width="4" fill="none"></path></g></g><mask></mask><g stroke-linecap="round"><g transform="translate(1206.8922465226249 83.95110321056006) rotate(0 26.008361155427565 7.1685744897627615)"><path d="M0 0 C8.67 2.39, 43.35 11.95, 52.02 14.34 M0 0 C8.67 2.39, 43.35 11.95, 52.02 14.34" stroke="#1971c2" stroke-width="4" fill="none"></path></g><g transform="translate(1206.8922465226249 83.95110321056006) rotate(0 26.008361155427565 7.1685744897627615)"><path d="M27.1 16.34 C34.01 15.78, 40.93 15.23, 52.02 14.34 M27.1 16.34 C36.59 15.58, 46.08 14.81, 52.02 14.34" stroke="#1971c2" stroke-width="4" fill="none"></path></g><g transform="translate(1206.8922465226249 83.95110321056006) rotate(0 26.008361155427565 7.1685744897627615)"><path d="M31.64 -0.15 C37.3 3.87, 42.95 7.89, 52.02 14.34 M31.64 -0.15 C39.4 5.37, 47.16 10.89, 52.02 14.34" stroke="#1971c2" stroke-width="4" fill="none"></path></g></g><mask></mask><g stroke-linecap="round"><g transform="translate(1206.8922465226249 88.00153460778506) rotate(0 26.15442675084134 22.342649829810398)"><path d="M0 0 C8.72 7.45, 43.59 37.24, 52.31 44.69 M0 0 C8.72 7.45, 43.59 37.24, 52.31 44.69" stroke="#f08c00" stroke-width="4" fill="none"></path></g><g transform="translate(1206.8922465226249 88.00153460778506) rotate(0 26.15442675084134 22.342649829810398)"><path d="M28.89 35.93 C33.81 37.77, 38.73 39.61, 52.31 44.69 M28.89 35.93 C34.56 38.05, 40.24 40.17, 52.31 44.69" stroke="#f08c00" stroke-width="4" fill="none"></path></g><g transform="translate(1206.8922465226249 88.00153460778506) rotate(0 26.15442675084134 22.342649829810398)"><path d="M40 22.93 C42.59 27.49, 45.17 32.06, 52.31 44.69 M40 22.93 C42.98 28.2, 45.96 33.47, 52.31 44.69" stroke="#f08c00" stroke-width="4" fill="none"></path></g></g><mask></mask></svg>